<svg xmlns="http://www.w3.org/2000/svg" xmlns:xlink="http://www.w3.org/1999/xlink" width="433" height="864" viewBox="0 0 433 864"><defs><linearGradient id="a" x1="100%" x2="2.533%" y1="50%" y2="50%"><stop offset="0%"/><stop offset="100%" stop-color="#888"/></linearGradient><linearGradient id="d" x1="100%" x2="0%" y1="50%" y2="50%"><stop offset="0%"/><stop offset="97.467%" stop-color="#888"/></linearGradient><linearGradient id="w" x1="50%" x2="50%" y1="100%" y2="0%"><stop offset="0%" stop-color="#333"/><stop offset="100%" stop-color="#111"/></linearGradient><linearGradient id="s" x1="50%" x2="50%" y1="100%" y2=".273%"><stop offset="0%"/><stop offset="100%" stop-color="#67A3E7"/></linearGradient><linearGradient id="k" x1="50%" x2="50%" y1="50%" y2="98.849%"><stop offset="0%" stop-color="#222"/><stop offset="100%" stop-color="#111"/></linearGradient><linearGradient id="l" x1="50%" x2="50%" y1="0%" y2="100%"><stop offset="0%" stop-color="#444" stop-opacity=".6"/><stop offset="100%"/></linearGradient><linearGradient id="r" x1="50%" x2="50%" y1="100%" y2=".273%"><stop offset="0%" stop-color="#090E1A"/><stop offset="100%" stop-color="#2D5283"/></linearGradient><linearGradient id="p" x1="50%" x2="50%" y1="100%" y2="0%"><stop offset="0%" stop-color="#222"/><stop offset="100%"/></linearGradient><linearGradient id="o" x1="50%" x2="50%" y1="100%" y2="0%"><stop offset="0%" stop-color="#222"/><stop offset="100%" stop-color="#111"/></linearGradient><filter id="f" width="116.7%" height="101%" x="-8.3%" y="-.5%" filterUnits="objectBoundingBox"><feOffset dx="1" in="SourceAlpha" result="shadowOffsetInner1"/><feComposite in="shadowOffsetInner1" in2="SourceAlpha" k2="-1" k3="1" operator="arithmetic" result="shadowInnerInner1"/><feColorMatrix in="shadowInnerInner1" values="0 0 0 0 0 0 0 0 0 0 0 0 0 0 0 0 0 0 0.2 0"/></filter><filter id="u" width="101.9%" height="128.6%" x="-.9%" y="-7.1%" filterUnits="objectBoundingBox"><feOffset dy="1" in="SourceAlpha" result="shadowOffsetOuter1"/><feColorMatrix in="shadowOffsetOuter1" values="0 0 0 0 1 0 0 0 0 1 0 0 0 0 1 0 0 0 0.1 0"/></filter><filter id="h" width="102.8%" height="101.4%" x="-1.4%" y="-.7%" filterUnits="objectBoundingBox"><feGaussianBlur in="SourceAlpha" result="shadowBlurInner1" stdDeviation="6"/><feOffset in="shadowBlurInner1" result="shadowOffsetInner1"/><feComposite in="shadowOffsetInner1" in2="SourceAlpha" k2="-1" k3="1" operator="arithmetic" result="shadowInnerInner1"/><feColorMatrix in="shadowInnerInner1" values="0 0 0 0 1 0 0 0 0 1 0 0 0 0 1 0 0 0 0.4 0"/></filter><filter id="c" width="116.7%" height="100.5%" x="-8.3%" y="-.2%" filterUnits="objectBoundingBox"><feOffset dx="1" in="SourceAlpha" result="shadowOffsetInner1"/><feComposite in="shadowOffsetInner1" in2="SourceAlpha" k2="-1" k3="1" operator="arithmetic" result="shadowInnerInner1"/><feColorMatrix in="shadowInnerInner1" values="0 0 0 0 0 0 0 0 0 0 0 0 0 0 0 0 0 0 0.2 0"/></filter><filter id="m" width="107.7%" height="115.4%" x="-3.8%" y="-3.8%" filterUnits="objectBoundingBox"><feOffset dy="1" in="SourceAlpha" result="shadowOffsetOuter1"/><feColorMatrix in="shadowOffsetOuter1" values="0 0 0 0 1 0 0 0 0 1 0 0 0 0 1 0 0 0 0.1 0"/></filter><filter id="i" width="102.9%" height="101.4%" x="-1.5%" y="-.7%" filterUnits="objectBoundingBox"><feOffset in="SourceAlpha" result="shadowOffsetOuter1"/><feGaussianBlur in="shadowOffsetOuter1" result="shadowBlurOuter1" stdDeviation="2"/><feComposite in="shadowBlurOuter1" in2="SourceAlpha" operator="out" result="shadowBlurOuter1"/><feColorMatrix in="shadowBlurOuter1" values="0 0 0 0 0 0 0 0 0 0 0 0 0 0 0 0 0 0 0.2 0"/></filter><path id="b" d="M3 140c2 0 3 1 3 3v56a3 3 0 01-6 0v-56c0-2 1-3 3-3zm0-78c2 0 3 1 3 3v56a3 3 0 01-6 0V65c0-2 1-3 3-3zM3 0c2 0 3 1 3 3v26a3 3 0 01-6 0V3c0-2 1-3 3-3z"/><path id="j" d="M60 0h291c33 0 60 27 60 60v728c0 33-27 60-60 60H60c-33 0-60-27-60-60V60C0 27 27 0 60 0zm64 48c-13 0-24-11-24-25 0-3-2-5-5-5H56c-21 0-38 17-38 38v736c0 21 17 38 38 38h299c21 0 38-17 38-38V56c0-21-17-38-38-38h-39c-3 0-5 2-5 5 0 14-11 25-24 25H124z"/><path id="g" d="M67 0h299c35 0 64 29 64 64v736c0 35-29 64-64 64H67c-35 0-64-29-64-64V64C3 29 32 0 67 0zm68 56c-13 0-24-11-24-25 0-3-2-5-5-5H67c-21 0-38 17-38 38v736c0 21 17 38 38 38h299c21 0 38-17 38-38V64c0-21-17-38-38-38h-39c-3 0-5 2-5 5 0 14-11 25-24 25H135z"/><circle id="n" cx="6.5" cy="6.5" r="6.5"/><circle id="q" cx="6.5" cy="6.5" r="3.5"/><rect id="e" width="6" height="96" x="427" y="84" rx="3"/><rect id="v" width="53" height="7" y="3" rx="3.5"/></defs><g fill="none"><g transform="translate(0 118)"><use fill="url(#a)" xlink:href="#b"/><use fill="#000" filter="url(#c)" xlink:href="#b"/><g transform="rotate(-180 430 132)"><use fill="url(#d)" xlink:href="#e"/><use fill="#000" filter="url(#f)" xlink:href="#e"/></g></g><use fill="#333" xlink:href="#g"/><use fill="#000" filter="url(#h)" xlink:href="#g"/><path stroke="#000" stroke-linejoin="square" stroke-opacity=".1" d="M67 1C32 1 4 29 4 64v736c0 35 28 64 63 64h299c35 0 64-29 64-64V64c0-35-29-63-64-63H67zm68 55h163c13 0 24-11 24-25 0-3 2-5 5-5h39c21 0 39 17 39 38v736c0 21-18 39-39 39H67c-21 0-38-18-38-39V64c0-21 17-38 38-38h39c3 0 5 2 5 5 0 14 11 25 24 25z"/><path fill="#000" d="M29 84v6H3v-6h26zm375 0h26v6h-26v-6zM29 774v6H3v-6h26zm375 0h26v6h-26v-6z" opacity=".1"/><g transform="translate(11 8)"><use fill="#000" filter="url(#i)" xlink:href="#j"/><path fill="url(#k)" stroke="url(#l)" stroke-linejoin="square" d="M60 1C27 1 1 27 1 60v728c0 33 26 60 59 60h291c33 0 60-27 60-60V60c0-33-27-59-60-59H60zm64 47h163c13 0 24-11 24-25 0-3 2-5 5-5h39c21 0 39 17 39 38v736c0 21-18 39-39 39H56c-21 0-38-18-38-39V56c0-21 17-38 38-38h39c3 0 5 2 5 5 0 14 11 25 24 25z"/></g><g transform="translate(190 27)"><g transform="translate(65)"><use fill="#000" filter="url(#m)" xlink:href="#n"/><use fill="url(#o)" xlink:href="#n"/><circle cx="6.5" cy="6.5" r="4.5" fill="url(#p)"/><mask id="t" fill="#fff"><use xlink:href="#q"/></mask><use fill="url(#r)" xlink:href="#q"/><path fill="url(#s)" d="M7 5l3 1-3-3C5 3 3 5 3 6l4-1z" mask="url(#t)" opacity=".5"/></g><use fill="#000" filter="url(#u)" xlink:href="#v"/><use fill="url(#w)" xlink:href="#v"/></g></g></svg>